HIERARCHY
ROOT Hips
{
  OFFSET 4.196 23.422 -235.808
  CHANNELS 6 Xposition Yposition Zposition Zrotation Xrotation Yrotation
  JOINT LeftUpLeg
  {
    OFFSET 7.089 -5.905 2.752
    CHANNELS 6 Xposition Yposition Zposition Zrotation Xrotation Yrotation
    JOINT LeftLeg
    {
      OFFSET 0.000 -46.400 0.000
      CHANNELS 6 Xposition Yposition Zposition Zrotation Xrotation Yrotation
      JOINT LeftFoot
      {
        OFFSET -0.000 -40.625 -0.000
        CHANNELS 6 Xposition Yposition Zposition Zrotation Xrotation Yrotation
        End Site
        {
          OFFSET 0.000 -7.214 4.165
        }
      }
    }
  }
  JOINT RightUpLeg
  {
    OFFSET -6.964 -5.885 3.900
    CHANNELS 6 Xposition Yposition Zposition Zrotation Xrotation Yrotation
    JOINT RightLeg
    {
      OFFSET 0.000 -46.175 0.000
      CHANNELS 6 Xposition Yposition Zposition Zrotation Xrotation Yrotation
      JOINT RightFoot
      {
        OFFSET -0.000 -42.144 -0.000
        CHANNELS 6 Xposition Yposition Zposition Zrotation Xrotation Yrotation
        End Site
        {
          OFFSET 0.000 -7.525 4.345
        }
      }
    }
  }
  JOINT Spine
  {
    OFFSET 0.000 5.335 -5.335
    CHANNELS 6 Xposition Yposition Zposition Zrotation Xrotation Yrotation
    JOINT LeftShoulder
    {
      OFFSET -0.000 39.734 0.000
      CHANNELS 6 Xposition Yposition Zposition Zrotation Xrotation Yrotation
      JOINT LeftArm
      {
        OFFSET 18.827 0.000 -0.000
        CHANNELS 6 Xposition Yposition Zposition Zrotation Xrotation Yrotation
        JOINT LeftForeArm
        {
          OFFSET 20.865 0.000 0.000
          CHANNELS 6 Xposition Yposition Zposition Zrotation Xrotation Yrotation
          JOINT LeftHand
          {
            OFFSET 23.141 -0.000 -0.000
            CHANNELS 6 Xposition Yposition Zposition Zrotation Xrotation Yrotation
            JOINT LeftHandThumb1
            {
            OFFSET 4.970 -0.620 3.390
            CHANNELS 6 Xposition Yposition Zposition Zrotation Xrotation Yrotation
              JOINT LeftHandThumb2
              {
              OFFSET 2.150 -0.000 0.000
              CHANNELS 6 Xposition Yposition Zposition Zrotation Xrotation Yrotation
                JOINT LeftHandThumb3
                {
                OFFSET 2.200 -0.000 0.000
                CHANNELS 6 Xposition Yposition Zposition Zrotation Xrotation Yrotation
                  JOINT LeftHandThumb4
                  {
                  OFFSET 1.700 -0.000 0.000
                  CHANNELS 6 Xposition Yposition Zposition Zrotation Xrotation Yrotation
                  }
                }
              }
            }
            JOINT LeftHandIndex1
            {
            OFFSET 8.730 0.680 2.070
            CHANNELS 6 Xposition Yposition Zposition Zrotation Xrotation Yrotation
              JOINT LeftHandIndex2
              {
              OFFSET 2.670 -0.000 0.000
              CHANNELS 6 Xposition Yposition Zposition Zrotation Xrotation Yrotation
                JOINT LeftHandIndex3
                {
                OFFSET 2.130 -0.000 0.000
                CHANNELS 6 Xposition Yposition Zposition Zrotation Xrotation Yrotation
                  JOINT LeftHandIndex4
                  {
                  OFFSET 1.800 -0.000 0.000
                  CHANNELS 6 Xposition Yposition Zposition Zrotation Xrotation Yrotation
                  }
                }
              }
            }
            JOINT LeftHandMiddle1
            {
            OFFSET 9.220 0.670 0.550
            CHANNELS 6 Xposition Yposition Zposition Zrotation Xrotation Yrotation
              JOINT LeftHandMiddle2
              {
              OFFSET 2.660 -0.000 0.000
              CHANNELS 6 Xposition Yposition Zposition Zrotation Xrotation Yrotation
                JOINT LeftHandMiddle3
                {
                OFFSET 2.280 -0.000 0.000
                CHANNELS 6 Xposition Yposition Zposition Zrotation Xrotation Yrotation
                  JOINT LeftHandMiddle4
                  {
                  OFFSET 1.500 -0.000 0.000
                  CHANNELS 6 Xposition Yposition Zposition Zrotation Xrotation Yrotation
                  }
                }
              }
            }
            JOINT LeftHandRing1
            {
            OFFSET 9.250 0.670 -1.130
            CHANNELS 6 Xposition Yposition Zposition Zrotation Xrotation Yrotation
              JOINT LeftHandRing2
              {
              OFFSET 2.470 -0.000 0.000
              CHANNELS 6 Xposition Yposition Zposition Zrotation Xrotation Yrotation
                JOINT LeftHandRing3
                {
                OFFSET 2.210 -0.000 0.000
                CHANNELS 6 Xposition Yposition Zposition Zrotation Xrotation Yrotation
                  JOINT LeftHandRing4
                  {
                  OFFSET 1.800 -0.000 0.000
                  CHANNELS 6 Xposition Yposition Zposition Zrotation Xrotation Yrotation
                  }
                }
              }
            }
            JOINT LeftHandPinky1
            {
            OFFSET 9.350 0.660 -2.720
            CHANNELS 6 Xposition Yposition Zposition Zrotation Xrotation Yrotation
              JOINT LeftHandPinky2
              {
              OFFSET 1.630 -0.000 0.000
              CHANNELS 6 Xposition Yposition Zposition Zrotation Xrotation Yrotation
                JOINT LeftHandPinky3
                {
                OFFSET 1.710 -0.000 0.000
                CHANNELS 6 Xposition Yposition Zposition Zrotation Xrotation Yrotation
                  JOINT LeftHandPinky4
                  {
                  OFFSET 1.800 -0.000 0.000
                  CHANNELS 6 Xposition Yposition Zposition Zrotation Xrotation Yrotation
                  }
                }
              }
            }
          }
        }
      }
    }
    JOINT RightShoulder
    {
      OFFSET -0.000 39.734 0.000
      CHANNELS 6 Xposition Yposition Zposition Zrotation Xrotation Yrotation
      JOINT RightArm
      {
        OFFSET -20.985 0.000 -0.000
        CHANNELS 6 Xposition Yposition Zposition Zrotation Xrotation Yrotation
        JOINT RightForeArm
        {
          OFFSET -20.646 0.000 0.000
          CHANNELS 6 Xposition Yposition Zposition Zrotation Xrotation Yrotation
          JOINT RightHand
          {
            OFFSET -22.803 0.000 -0.000
            CHANNELS 6 Xposition Yposition Zposition Zrotation Xrotation Yrotation
            JOINT RightHandThumb1
            {
            OFFSET -4.970 -0.620 3.390
            CHANNELS 6 Xposition Yposition Zposition Zrotation Xrotation Yrotation
              JOINT RightHandThumb2
              {
              OFFSET -2.150 0.000 0.000
              CHANNELS 6 Xposition Yposition Zposition Zrotation Xrotation Yrotation
                JOINT RightHandThumb3
                {
                OFFSET -2.200 0.000 0.000
                CHANNELS 6 Xposition Yposition Zposition Zrotation Xrotation Yrotation
                  JOINT RightHandThumb4
                  {
                  OFFSET -1.700 0.000 0.000
                  CHANNELS 6 Xposition Yposition Zposition Zrotation Xrotation Yrotation
                  }
                }
              }
            }
            JOINT RightHandIndex1
            {
            OFFSET -8.730 0.680 2.070
            CHANNELS 6 Xposition Yposition Zposition Zrotation Xrotation Yrotation
              JOINT RightHandIndex2
              {
              OFFSET -2.670 0.000 0.000
              CHANNELS 6 Xposition Yposition Zposition Zrotation Xrotation Yrotation
                JOINT RightHandIndex3
                {
                OFFSET -2.130 0.000 0.000
                CHANNELS 6 Xposition Yposition Zposition Zrotation Xrotation Yrotation
                  JOINT RightHandIndex4
                  {
                  OFFSET -1.800 0.000 0.000
                  CHANNELS 6 Xposition Yposition Zposition Zrotation Xrotation Yrotation
                  }
                }
              }
            }
            JOINT RightHandMiddle1
            {
            OFFSET -9.220 0.670 0.550
            CHANNELS 6 Xposition Yposition Zposition Zrotation Xrotation Yrotation
              JOINT RightHandMiddle2
              {
              OFFSET -2.660 0.000 0.000
              CHANNELS 6 Xposition Yposition Zposition Zrotation Xrotation Yrotation
                JOINT RightHandMiddle3
                {
                OFFSET -2.280 0.000 0.000
                CHANNELS 6 Xposition Yposition Zposition Zrotation Xrotation Yrotation
                  JOINT RightHandMiddle4
                  {
                  OFFSET -1.500 0.000 0.000
                  CHANNELS 6 Xposition Yposition Zposition Zrotation Xrotation Yrotation
                  }
                }
              }
            }
            JOINT RightHandRing1
            {
            OFFSET -9.250 0.670 -1.130
            CHANNELS 6 Xposition Yposition Zposition Zrotation Xrotation Yrotation
              JOINT RightHandRing2
              {
              OFFSET -2.470 0.000 0.000
              CHANNELS 6 Xposition Yposition Zposition Zrotation Xrotation Yrotation
                JOINT RightHandRing3
                {
                OFFSET -2.210 0.000 0.000
                CHANNELS 6 Xposition Yposition Zposition Zrotation Xrotation Yrotation
                  JOINT RightHandRing4
                  {
                  OFFSET -1.800 0.000 0.000
                  CHANNELS 6 Xposition Yposition Zposition Zrotation Xrotation Yrotation
                  }
                }
              }
            }
            JOINT RightHandPinky1
            {
            OFFSET -9.350 0.660 -2.720
            CHANNELS 6 Xposition Yposition Zposition Zrotation Xrotation Yrotation
              JOINT RightHandPinky2
              {
              OFFSET -1.630 0.000 0.000
              CHANNELS 6 Xposition Yposition Zposition Zrotation Xrotation Yrotation
                JOINT RightHandPinky3
                {
                OFFSET -1.710 0.000 0.000
                CHANNELS 6 Xposition Yposition Zposition Zrotation Xrotation Yrotation
                  JOINT RightHandPinky4
                  {
                  OFFSET -1.800 0.000 0.000
                  CHANNELS 6 Xposition Yposition Zposition Zrotation Xrotation Yrotation
                  }
                }
              }
            }
          }
        }
      }
    }
    JOINT Neck
    {
      OFFSET -0.000 39.734 0.000
      CHANNELS 6 Xposition Yposition Zposition Zrotation Xrotation Yrotation
      JOINT Head
      {
        OFFSET -0.000 13.764 -0.000
        CHANNELS 6 Xposition Yposition Zposition Zrotation Xrotation Yrotation
        End Site
        {
          OFFSET -0.000 0.055 -0.000
        }
      }
    }
  }
}
MOTION
Frames:	4
Frame Time:	0.0333333
7.78131 26.7868 -254.483 0.796159 16.4894 -9.29845 7.04586 -6.23231 2.27425 1.92636 -15.9984 1.71326 -2.98023e-06 -48.2954 4.76837e-05 0.196149 14.4933 -1.76367e-06 0 -41.2189 2.38419e-05 6.37794 -11.287 4.78919 -7.05517 -6.63595 2.6931 -6.88528 -18.2054 -0.491797 0 -48.5933 4.76837e-05 6.54455 14.8028 -2.64925e-06 -2.98023e-06 -42.1271 -2.38419e-05 -5.54705 -3.63616 -3.53112 8.9407e-06 5.50192 -5.50196 -0.10512 -13.6979 1.03425 -8.9407e-06 39.7354 7.15256e-05 -41.0716 9.39151e-06 2.98026 19.2272 0 2.38419e-05 -22.605 34.3325 7.44083 20.3255 3.57628e-05 2.38419e-05 1.46179e-05 3.95604e-06 -117.211 24.8268 1.19209e-05 5.96046e-06 17.9203 -0.164438 -5.69237 0.0062 0.0497 0.0339 0 0 0 0 0.0215 0 0 0 0 0 0.022 0 0 0 0 0 0.017 0 0 0 0 -0.0068 0.0873 0.0207 0 0 0 0 0.0267 0 0 0 0 0 0.0213 0 0 0 0 0 0.018 0 0 0 0 -0.0067 0.0922 0.0055 0 0 0 0 0.0266 0 0 0 0 0 0.0228 0 0 0 0 0 0.015 0 0 0 0 -0.0067 0.0925 -0.0113 0 0 0 0 0.0247 0 0 0 0 0 0.0221 0 0 0 0 0 0.018 0 0 0 0 -0.0066 0.0935 -0.0272 0 0 0 0 0.0163 0 0 0 0 0 0.0171 0 0 0 0 0 0.018 0 0 0 0 -8.9407e-06 39.7354 7.15256e-05 39.9416 -3.62854e-06 -2.70103 -21.2132 -1.78814e-05 -2.38419e-05 32.4128 33.5733 6.076 -20.6838 1.19209e-05 0 6.79271e-05 1.55512e-05 92.761 -25.6263 5.96046e-06 -8.9407e-06 29.5915 2.23398 38.7662 -0.0062 0.0497 0.0339 14.6685 0 0 0 0.0215 0 0 -14.6685 0 0 0.022 0 0 -14.6685 0 0 0.017 0 0 0 0 0.0068 0.0873 0.0207 14.6685 0 0 0 0.0267 0 26.0773 0 0 0 0.0213 0 29.3369 0 0 0 0.018 0 0 0 0 0.0067 0.0922 0.0055 14.6685 0 0 0 0.0266 0 26.0773 0 0 0 0.0228 0 29.3369 0 0 0 0.015 0 0 0 0 0.0067 0.0925 -0.0113 14.6685 0 0 0 0.0247 0 26.0773 0 0 0 0.0221 0 29.3369 0 0 0 0.018 0 0 0 0 0.0066 0.0935 -0.0272 14.6685 0 0 0 0.0163 0 26.0773 0 0 0 0.0171 0 29.3369 0 0 0 0.018 0 0 0 0 -8.9407e-06 39.7354 7.15256e-05 12.4795 8.91696 -1.96476 -7.45058e-06 12.9213 -4.76837e-05 1.00318e-05 -1.45141e-05 -8.53774e-07 
6.73942 26.7651 -254.226 0.956698 16.8223 -9.54684 7.08975 -6.22643 2.21488 2.71224 -15.2406 2.70782 4.47035e-06 -47.8946 2.38419e-05 -0.413489 12.7383 0.0911744 4.47035e-06 -41.3866 -4.76837e-05 6.02666 -9.78522 4.43589 -7.08715 -6.63052 2.83725 -7.36248 -18.5553 0.549743 2.98023e-06 -48.5473 -2.38419e-05 5.4368 14.5607 8.82105e-07 -2.98023e-06 -42.3189 0 -5.75294 -3.70784 -3.67072 0 5.48153 -5.48153 -0.0410199 -14.1284 1.0477 -2.98023e-06 39.7353 -7.15256e-05 -40.9848 1.19528e-05 3.33421 19.2433 -5.96046e-06 0 -22.4584 31.4201 2.52959 20.4798 2.38419e-05 0 3.78571e-05 -1.46629e-05 -114.055 23.6534 0 -2.98023e-05 14.7947 -0.356235 -7.88272 0.0062 0.0497 0.0339 0 0 0 0 0.0215 0 0 0 0 0 0.022 0 0 0 0 0 0.017 0 0 0 0 -0.0068 0.0873 0.0207 0 0 0 0 0.0267 0 0 0 0 0 0.0213 0 0 0 0 0 0.018 0 0 0 0 -0.0067 0.0922 0.0055 0 0 0 0 0.0266 0 0 0 0 0 0.0228 0 0 0 0 0 0.015 0 0 0 0 -0.0067 0.0925 -0.0113 0 0 0 0 0.0247 0 0 0 0 0 0.0221 0 0 0 0 0 0.018 0 0 0 0 -0.0066 0.0935 -0.0272 0 0 0 0 0.0163 0 0 0 0 0 0.0171 0 0 0 0 0 0.018 0 0 0 0 -2.98023e-06 39.7353 -7.15256e-05 39.6232 -2.56132e-06 -3.00973 -21.3157 5.96046e-06 2.38419e-05 33.2673 33.5712 -0.175991 -20.4774 5.96046e-06 4.76837e-05 8.15978e-05 1.5657e-05 92.6669 -25.4886 -5.96046e-06 1.3411e-05 28.1261 2.11821 44.619 -0.0062 0.0497 0.0339 8.38345 0 0 0 0.0215 0 0 -8.38345 0 0 0.022 0 0 -8.38345 0 0 0.017 0 0 0 0 0.0068 0.0873 0.0207 8.38345 0 0 0 0.0267 0 14.9039 0 0 0 0.0213 0 16.7669 0 0 0 0.018 0 0 0 0 0.0067 0.0922 0.0055 8.38345 0 0 0 0.0266 0 14.9039 0 0 0 0.0228 0 16.7669 0 0 0 0.015 0 0 0 0 0.0067 0.0925 -0.0113 8.38345 0 0 0 0.0247 0 14.9039 0 0 0 0.0221 0 16.7669 0 0 0 0.018 0 0 0 0 0.0066 0.0935 -0.0272 8.38345 0 0 0 0.0163 0 14.9039 0 0 0 0.0171 0 16.7669 0 0 0 0.018 0 0 0 0 -2.98023e-06 39.7353 -7.15256e-05 13.1858 9.19237 -2.14342 1.19209e-05 12.9042 2.38419e-05 1.02453e-05 -9.39151e-06 -8.53773e-07 
4.65006 26.7084 -253.693 1.32529 17.6023 -9.43113 7.08377 -6.22556 2.18689 4.19789 -13.6359 3.85296 -7.45058e-06 -47.0177 2.38419e-05 -1.86418 9.14727 0.296457 8.9407e-06 -41.7119 2.38419e-05 5.35691 -7.57465 3.81059 -7.03203 -6.56983 2.99687 -7.85147 -19.2562 1.54856 -2.98023e-06 -48.3834 2.38419e-05 4.16726 14.5265 8.81969e-07 2.98023e-06 -42.6442 -2.38419e-05 -5.5799 -3.65213 -3.56423 8.9407e-06 5.44374 -5.44376 0.1708 -14.9149 0.746262 2.98023e-06 39.7354 0 -41.3123 1.36604e-05 3.95474 19.4239 1.19209e-05 0 -21.1637 29.7226 -6.66939 20.9346 1.19209e-05 0 1.12894e-05 -1.51571e-05 -107.781 22.2363 0 -1.19209e-05 7.84828 -0.275654 -13.5069 0.0062 0.0497 0.0339 0 0 0 0 0.0215 0 0 0 0 0 0.022 0 0 0 0 0 0.017 0 0 0 0 -0.0068 0.0873 0.0207 0 0 0 0 0.0267 0 0 0 0 0 0.0213 0 0 0 0 0 0.018 0 0 0 0 -0.0067 0.0922 0.0055 0 0 0 0 0.0266 0 0 0 0 0 0.0228 0 0 0 0 0 0.015 0 0 0 0 -0.0067 0.0925 -0.0113 0 0 0 0 0.0247 0 0 0 0 0 0.0221 0 0 0 0 0 0.018 0 0 0 0 -0.0066 0.0935 -0.0272 0 0 0 0 0.0163 0 0 0 0 0 0.0171 0 0 0 0 0 0.018 0 0 0 0 2.98023e-06 39.7354 0 39.2587 -5.33608e-06 -3.6316 -21.1497 -5.96046e-06 -2.38419e-05 34.3277 30.5577 -11.0723 -20.5532 5.96046e-06 0 -7.32018e-08 3.35579e-06 92.4994 -23.4739 0 1.19209e-05 25.2883 1.28019 46.3318 -0.0062 0.0497 0.0339 0.154584 0 0 0 0.0215 0 0 -0.154584 0 0 0.022 0 0 -0.154584 0 0 0.017 0 0 0 0 0.0068 0.0873 0.0207 0.154584 0 0 0 0.0267 0 0.274816 0 0 0 0.0213 0 0.309168 0 0 0 0.018 0 0 0 0 0.0067 0.0922 0.0055 0.154584 0 0 0 0.0266 0 0.274816 0 0 0 0.0228 0 0.309168 0 0 0 0.015 0 0 0 0 0.0067 0.0925 -0.0113 0.154584 0 0 0 0.0247 0 0.274816 0 0 0 0.0221 0 0.309168 0 0 0 0.018 0 0 0 0 0.0066 0.0935 -0.0272 0.154584 0 0 0 0.0163 0 0.274816 0 0 0 0.0171 0 0.309168 0 0 0 0.018 0 0 0 0 2.98023e-06 39.7354 0 11.814 8.86683 -1.8466 0 12.688 2.38419e-05 9.8184e-06 -1.10991e-05 1.70755e-06 
4.65006 26.7084 -253.693 1.32529 17.6023 -9.43113 7.08377 -6.22556 2.18689 4.19789 -13.6359 3.85296 -7.45058e-06 -47.0177 2.38419e-05 -1.86418 9.14727 0.296457 8.9407e-06 -41.7119 2.38419e-05 5.35691 -7.57465 3.81059 -7.03203 -6.56983 2.99687 -7.85147 -19.2562 1.54856 -2.98023e-06 -48.3834 2.38419e-05 4.16726 14.5265 8.81969e-07 2.98023e-06 -42.6442 -2.38419e-05 -5.5799 -3.65213 -3.56423 8.9407e-06 5.44374 -5.44376 0.1708 -14.9149 0.746262 2.98023e-06 39.7354 0 -41.3123 1.36604e-05 3.95474 19.4239 1.19209e-05 0 -21.1637 29.7226 -6.66939 20.9346 1.19209e-05 0 1.12894e-05 -1.51571e-05 -107.781 22.2363 0 -1.19209e-05 7.84828 -0.275654 -13.5069 0.0062 0.0497 0.0339 0 0 0 0 0.0215 0 0 0 0 0 0.022 0 0 0 0 0 0.017 0 0 0 0 -0.0068 0.0873 0.0207 0 0 0 0 0.0267 0 0 0 0 0 0.0213 0 0 0 0 0 0.018 0 0 0 0 -0.0067 0.0922 0.0055 0 0 0 0 0.0266 0 0 0 0 0 0.0228 0 0 0 0 0 0.015 0 0 0 0 -0.0067 0.0925 -0.0113 0 0 0 0 0.0247 0 0 0 0 0 0.0221 0 0 0 0 0 0.018 0 0 0 0 -0.0066 0.0935 -0.0272 0 0 0 0 0.0163 0 0 0 0 0 0.0171 0 0 0 0 0 0.018 0 0 0 0 2.98023e-06 39.7354 0 39.2587 -5.33608e-06 -3.6316 -21.1497 -5.96046e-06 -2.38419e-05 34.3277 30.5577 -11.0723 -20.5532 5.96046e-06 0 -7.32018e-08 3.35579e-06 92.4994 -23.4739 0 1.19209e-05 25.2883 1.28019 46.3318 -0.0062 0.0497 0.0339 0.154584 0 0 0 0.0215 0 0 -0.154584 0 0 0.022 0 0 -0.154584 0 0 0.017 0 0 0 0 0.0068 0.0873 0.0207 0.154584 0 0 0 0.0267 0 0.274816 0 0 0 0.0213 0 0.309168 0 0 0 0.018 0 0 0 0 0.0067 0.0922 0.0055 0.154584 0 0 0 0.0266 0 0.274816 0 0 0 0.0228 0 0.309168 0 0 0 0.015 0 0 0 0 0.0067 0.0925 -0.0113 0.154584 0 0 0 0.0247 0 0.274816 0 0 0 0.0221 0 0.309168 0 0 0 0.018 0 0 0 0 0.0066 0.0935 -0.0272 0.154584 0 0 0 0.0163 0 0.274816 0 0 0 0.0171 0 0.309168 0 0 0 0.018 0 0 0 0 2.98023e-06 39.7354 0 11.814 8.86683 -1.8466 0 12.688 2.38419e-05 9.8184e-06 -1.10991e-05 1.70755e-06 
